<?xml version="1.0" encoding="UTF-8" standalone="no"?>
<!DOCTYPE svg PUBLIC "-//W3C//DTD SVG 1.1//EN"
  "http://www.w3.org/Graphics/SVG/1.1/DTD/svg11.dtd">
<svg width="64px" height="64px" version="1.1"
  xmlns="http://www.w3.org/2000/svg">
<!--
 Copyright © 2008-2012 Tobias Quathamer <t.quathamer@gmx.net>

 This file is part of the Drupal Weather module.

 Weather is free software; you can redistribute it and/or modify
 it under the terms of the GNU General Public License as published by
 the Free Software Foundation; either version 2 of the License, or
 (at your option) any later version.

 Weather is distributed in the hope that it will be useful,
 but WITHOUT ANY WARRANTY; without even the implied warranty of
 MERCHANTABILITY or FITNESS FOR A PARTICULAR PURPOSE.  See the
 GNU General Public License for more details.

 You should have received a copy of the GNU General Public License
 along with Weather; if not, write to the Free Software
 Foundation, Inc., 51 Franklin St, Fifth Floor, Boston, MA  02110-1301  USA
-->

  <!-- blue sky background -->	
  <linearGradient id="sky" x2="0" y2="100%">
    <stop offset="0" stop-color="#6699ff" />
    <stop offset="1" stop-color="#99ccff" />
  </linearGradient>
  <rect x="0" y="0" width="100%" height="100%" fill="url(#sky)" />
	
  <!-- a nice and warm sun -->
  <radialGradient id="sun">
    <stop offset="0" stop-color="#ffff00" />
    <stop offset="1" stop-color="#ffcc00" />
  </radialGradient>
  <circle cx="20" cy="20" r="16" fill="url(#sun)" />

  <!-- clouds colors -->
  <linearGradient id="cloud" x2="0" y2="100%">
    <stop offset="0" stop-color="#ffffff" />
    <stop offset="1" stop-color="#ccccff" />
  </linearGradient>
  
  <!-- broken clouds -->
  <path
    d="M 36,33 C 36,39 47,41 47,36 C 47,38 55,38 55,35 C 67,38 62,21 55,25 C 56,18 44,18 42,26 C 38,13 19,35 36,33"
    fill="url(#cloud)" />
  <path
    d="M 37,44 C 40,37 21,37 21,44 C 21,41 11,41 11,45 C -3,41 3,63 11,58 C 12,62 31,63 27,57 C 37,63 46,49 37,44"
    fill="url(#cloud)" />
  <path
    d="M 8,17 C 8,23 19,26 19,20 C 19,23 26,23 26,19 C 38,23 33,3 26,8 C 27,0 16,0 14,9 C 10,-6 -8,19 8,17"
    fill="url(#cloud)" />

  <!-- cover everything with semi-transparent white fog -->
  <rect x="0" y="0" width="100%" height="100%" fill="#ffffff" fill-opacity="0.5" />
</svg>
