<?xml version="1.0" encoding="UTF-8" standalone="no"?>
<!DOCTYPE svg PUBLIC "-//W3C//DTD SVG 1.1//EN"
  "http://www.w3.org/Graphics/SVG/1.1/DTD/svg11.dtd">
<svg width="64px" height="64px" version="1.1"
  xmlns="http://www.w3.org/2000/svg">
<!--
 Copyright © 2008-2012 Tobias Quathamer <t.quathamer@gmx.net>

 This file is part of the Drupal Weather module.

 Weather is free software; you can redistribute it and/or modify
 it under the terms of the GNU General Public License as published by
 the Free Software Foundation; either version 2 of the License, or
 (at your option) any later version.

 Weather is distributed in the hope that it will be useful,
 but WITHOUT ANY WARRANTY; without even the implied warranty of
 MERCHANTABILITY or FITNESS FOR A PARTICULAR PURPOSE.  See the
 GNU General Public License for more details.

 You should have received a copy of the GNU General Public License
 along with Weather; if not, write to the Free Software
 Foundation, Inc., 51 Franklin St, Fifth Floor, Boston, MA  02110-1301  USA
-->

  <!-- blue sky background -->	
  <linearGradient id="sky" x2="0" y2="100%">
    <stop offset="0" stop-color="#6699ff" />
    <stop offset="1" stop-color="#99ccff" />
  </linearGradient>
  <rect x="0" y="0" width="100%" height="100%" fill="url(#sky)" />
	
  <!-- a nice and warm sun -->
  <radialGradient id="sun">
    <stop offset="0" stop-color="#ffff00" />
    <stop offset="1" stop-color="#ffcc00" />
  </radialGradient>
  <circle cx="20" cy="20" r="16" fill="url(#sun)" />

  <!-- light snow -->
  <g
    stroke="#ddffff"
    stroke-width="1">
    <line x1="5" y1="26" x2="8" y2="29" transform="translate(5,-24)" />
    <line x1="8" y1="26" x2="5" y2="29" transform="translate(5,-24)" />
    <line x1="5" y1="26" x2="8" y2="29" transform="translate(15,-24)" />
    <line x1="8" y1="26" x2="5" y2="29" transform="translate(15,-24)" />
    <line x1="5" y1="26" x2="8" y2="29" transform="translate(25,-24)" />
    <line x1="8" y1="26" x2="5" y2="29" transform="translate(25,-24)" />
    <line x1="5" y1="26" x2="8" y2="29" transform="translate(35,-24)" />
    <line x1="8" y1="26" x2="5" y2="29" transform="translate(35,-24)" />
    <line x1="5" y1="26" x2="8" y2="29" transform="translate(45,-24)" />
    <line x1="8" y1="26" x2="5" y2="29" transform="translate(45,-24)" />
    <line x1="5" y1="26" x2="8" y2="29" transform="translate(0,-16)" />
    <line x1="8" y1="26" x2="5" y2="29" transform="translate(0,-16)" />
    <line x1="5" y1="26" x2="8" y2="29" transform="translate(10,-16)" />
    <line x1="8" y1="26" x2="5" y2="29" transform="translate(10,-16)" />
    <line x1="5" y1="26" x2="8" y2="29" transform="translate(20,-16)" />
    <line x1="8" y1="26" x2="5" y2="29" transform="translate(20,-16)" />
    <line x1="5" y1="26" x2="8" y2="29" transform="translate(30,-16)" />
    <line x1="8" y1="26" x2="5" y2="29" transform="translate(30,-16)" />
    <line x1="5" y1="26" x2="8" y2="29" transform="translate(40,-16)" />
    <line x1="8" y1="26" x2="5" y2="29" transform="translate(40,-16)" />
    <line x1="5" y1="26" x2="8" y2="29" transform="translate(50,-16)" />
    <line x1="8" y1="26" x2="5" y2="29" transform="translate(50,-16)" />
    <line x1="5" y1="26" x2="8" y2="29" transform="translate(5,-8)" />
    <line x1="8" y1="26" x2="5" y2="29" transform="translate(5,-8)" />
    <line x1="5" y1="26" x2="8" y2="29" transform="translate(15,-8)" />
    <line x1="8" y1="26" x2="5" y2="29" transform="translate(15,-8)" />
    <line x1="5" y1="26" x2="8" y2="29" transform="translate(25,-8)" />
    <line x1="8" y1="26" x2="5" y2="29" transform="translate(25,-8)" />
    <line x1="5" y1="26" x2="8" y2="29" transform="translate(35,-8)" />
    <line x1="8" y1="26" x2="5" y2="29" transform="translate(35,-8)" />
    <line x1="5" y1="26" x2="8" y2="29" transform="translate(45,-8)" />
    <line x1="8" y1="26" x2="5" y2="29" transform="translate(45,-8)" />
    <line x1="5" y1="26" x2="8" y2="29" />
    <line x1="8" y1="26" x2="5" y2="29" />
    <line x1="5" y1="26" x2="8" y2="29" transform="translate(10,0)" />
    <line x1="8" y1="26" x2="5" y2="29" transform="translate(10,0)" />
    <line x1="5" y1="26" x2="8" y2="29" transform="translate(20,0)" />
    <line x1="8" y1="26" x2="5" y2="29" transform="translate(20,0)" />
    <line x1="5" y1="26" x2="8" y2="29" transform="translate(30,0)" />
    <line x1="8" y1="26" x2="5" y2="29" transform="translate(30,0)" />
    <line x1="5" y1="26" x2="8" y2="29" transform="translate(40,0)" />
    <line x1="8" y1="26" x2="5" y2="29" transform="translate(40,0)" />
    <line x1="5" y1="26" x2="8" y2="29" transform="translate(50,0)" />
    <line x1="8" y1="26" x2="5" y2="29" transform="translate(50,0)" />
    <line x1="5" y1="26" x2="8" y2="29" transform="translate(5,8)" />
    <line x1="8" y1="26" x2="5" y2="29" transform="translate(5,8)" />
    <line x1="5" y1="26" x2="8" y2="29" transform="translate(15,8)" />
    <line x1="8" y1="26" x2="5" y2="29" transform="translate(15,8)" />
    <line x1="5" y1="26" x2="8" y2="29" transform="translate(25,8)" />
    <line x1="8" y1="26" x2="5" y2="29" transform="translate(25,8)" />
    <line x1="5" y1="26" x2="8" y2="29" transform="translate(35,8)" />
    <line x1="8" y1="26" x2="5" y2="29" transform="translate(35,8)" />
    <line x1="5" y1="26" x2="8" y2="29" transform="translate(45,8)" />
    <line x1="8" y1="26" x2="5" y2="29" transform="translate(45,8)" />
    <line x1="5" y1="26" x2="8" y2="29" transform="translate(0,16)" />
    <line x1="8" y1="26" x2="5" y2="29" transform="translate(0,16)" />
    <line x1="5" y1="26" x2="8" y2="29" transform="translate(10,16)" />
    <line x1="8" y1="26" x2="5" y2="29" transform="translate(10,16)" />
    <line x1="5" y1="26" x2="8" y2="29" transform="translate(20,16)" />
    <line x1="8" y1="26" x2="5" y2="29" transform="translate(20,16)" />
    <line x1="5" y1="26" x2="8" y2="29" transform="translate(30,16)" />
    <line x1="8" y1="26" x2="5" y2="29" transform="translate(30,16)" />
    <line x1="5" y1="26" x2="8" y2="29" transform="translate(40,16)" />
    <line x1="8" y1="26" x2="5" y2="29" transform="translate(40,16)" />
    <line x1="5" y1="26" x2="8" y2="29" transform="translate(50,16)" />
    <line x1="8" y1="26" x2="5" y2="29" transform="translate(50,16)" />
    <line x1="5" y1="26" x2="8" y2="29" transform="translate(5,24)" />
    <line x1="8" y1="26" x2="5" y2="29" transform="translate(5,24)" />
    <line x1="5" y1="26" x2="8" y2="29" transform="translate(15,24)" />
    <line x1="8" y1="26" x2="5" y2="29" transform="translate(15,24)" />
    <line x1="5" y1="26" x2="8" y2="29" transform="translate(25,24)" />
    <line x1="8" y1="26" x2="5" y2="29" transform="translate(25,24)" />
    <line x1="5" y1="26" x2="8" y2="29" transform="translate(35,24)" />
    <line x1="8" y1="26" x2="5" y2="29" transform="translate(35,24)" />
    <line x1="5" y1="26" x2="8" y2="29" transform="translate(45,24)" />
    <line x1="8" y1="26" x2="5" y2="29" transform="translate(45,24)" />
    <line x1="5" y1="26" x2="8" y2="29" transform="translate(0,32)" />
    <line x1="8" y1="26" x2="5" y2="29" transform="translate(0,32)" />
    <line x1="5" y1="26" x2="8" y2="29" transform="translate(10,32)" />
    <line x1="8" y1="26" x2="5" y2="29" transform="translate(10,32)" />
    <line x1="5" y1="26" x2="8" y2="29" transform="translate(20,32)" />
    <line x1="8" y1="26" x2="5" y2="29" transform="translate(20,32)" />
    <line x1="5" y1="26" x2="8" y2="29" transform="translate(30,32)" />
    <line x1="8" y1="26" x2="5" y2="29" transform="translate(30,32)" />
    <line x1="5" y1="26" x2="8" y2="29" transform="translate(40,32)" />
    <line x1="8" y1="26" x2="5" y2="29" transform="translate(40,32)" />
    <line x1="5" y1="26" x2="8" y2="29" transform="translate(50,32)" />
    <line x1="8" y1="26" x2="5" y2="29" transform="translate(50,32)" />
  </g>

  <!-- cover everything with semi-transparent white fog -->
  <rect x="0" y="0" width="100%" height="100%" fill="#ffffff" fill-opacity="0.5" />
</svg>
