<?xml version="1.0" encoding="UTF-8" standalone="no"?>
<!DOCTYPE svg PUBLIC "-//W3C//DTD SVG 1.1//EN"
  "http://www.w3.org/Graphics/SVG/1.1/DTD/svg11.dtd">
<svg width="64px" height="64px" version="1.1"
  xmlns="http://www.w3.org/2000/svg">
<!--
 Copyright © 2008-2012 Tobias Quathamer <t.quathamer@gmx.net>

 This file is part of the Drupal Weather module.

 Weather is free software; you can redistribute it and/or modify
 it under the terms of the GNU General Public License as published by
 the Free Software Foundation; either version 2 of the License, or
 (at your option) any later version.

 Weather is distributed in the hope that it will be useful,
 but WITHOUT ANY WARRANTY; without even the implied warranty of
 MERCHANTABILITY or FITNESS FOR A PARTICULAR PURPOSE.  See the
 GNU General Public License for more details.

 You should have received a copy of the GNU General Public License
 along with Weather; if not, write to the Free Software
 Foundation, Inc., 51 Franklin St, Fifth Floor, Boston, MA  02110-1301  USA
-->

  <!-- blue sky background -->	
  <linearGradient id="sky" x2="0" y2="100%">
    <stop offset="0" stop-color="#6283aa" />
    <stop offset="1" stop-color="#81bcff" />
  </linearGradient>
  <rect x="0" y="0" width="100%" height="100%" fill="url(#sky)" />
  
  <!-- a slightly cold sun -->
  <radialGradient id="sun">
    <stop offset="0" stop-color="#ffff66" />
    <stop offset="1" stop-color="#ffcc66" />
  </radialGradient>
  <circle cx="20" cy="20" r="16" fill="url(#sun)" />

  <!-- moderate rain -->
  <g
    stroke="#cceeff"
    stroke-width="1">
    <line x1="7" y1="25" x2="6" y2="28" transform="translate(0,-20)" />
    <line x1="7" y1="25" x2="6" y2="28" transform="translate(10,-20)" />
    <line x1="7" y1="25" x2="6" y2="28" transform="translate(20,-20)" />
    <line x1="7" y1="25" x2="6" y2="28" transform="translate(30,-20)" />
    <line x1="7" y1="25" x2="6" y2="28" transform="translate(40,-20)" />
    <line x1="7" y1="25" x2="6" y2="28" transform="translate(50,-20)" />
    <line x1="7" y1="25" x2="6" y2="28" transform="translate(5,-15)" />
    <line x1="7" y1="25" x2="6" y2="28" transform="translate(15,-15)" />
    <line x1="7" y1="25" x2="6" y2="28" transform="translate(25,-15)" />
    <line x1="7" y1="25" x2="6" y2="28" transform="translate(35,-15)" />
    <line x1="7" y1="25" x2="6" y2="28" transform="translate(45,-15)" />
    <line x1="7" y1="25" x2="6" y2="28" transform="translate(0,-10)" />
    <line x1="7" y1="25" x2="6" y2="28" transform="translate(10,-10)" />
    <line x1="7" y1="25" x2="6" y2="28" transform="translate(20,-10)" />
    <line x1="7" y1="25" x2="6" y2="28" transform="translate(30,-10)" />
    <line x1="7" y1="25" x2="6" y2="28" transform="translate(40,-10)" />
    <line x1="7" y1="25" x2="6" y2="28" transform="translate(50,-10)" />
    <line x1="7" y1="25" x2="6" y2="28" transform="translate(5,-5)" />
    <line x1="7" y1="25" x2="6" y2="28" transform="translate(15,-5)" />
    <line x1="7" y1="25" x2="6" y2="28" transform="translate(25,-5)" />
    <line x1="7" y1="25" x2="6" y2="28" transform="translate(35,-5)" />
    <line x1="7" y1="25" x2="6" y2="28" transform="translate(45,-5)" />
    <line x1="7" y1="25" x2="6" y2="28" />
    <line x1="7" y1="25" x2="6" y2="28" transform="translate(10,0)" />
    <line x1="7" y1="25" x2="6" y2="28" transform="translate(20,0)" />
    <line x1="7" y1="25" x2="6" y2="28" transform="translate(30,0)" />
    <line x1="7" y1="25" x2="6" y2="28" transform="translate(40,0)" />
    <line x1="7" y1="25" x2="6" y2="28" transform="translate(50,0)" />
    <line x1="7" y1="25" x2="6" y2="28" transform="translate(5,5)" />
    <line x1="7" y1="25" x2="6" y2="28" transform="translate(15,5)" />
    <line x1="7" y1="25" x2="6" y2="28" transform="translate(25,5)" />
    <line x1="7" y1="25" x2="6" y2="28" transform="translate(35,5)" />
    <line x1="7" y1="25" x2="6" y2="28" transform="translate(45,5)" />
    <line x1="7" y1="25" x2="6" y2="28" transform="translate(0,10)" />
    <line x1="7" y1="25" x2="6" y2="28" transform="translate(10,10)" />
    <line x1="7" y1="25" x2="6" y2="28" transform="translate(20,10)" />
    <line x1="7" y1="25" x2="6" y2="28" transform="translate(30,10)" />
    <line x1="7" y1="25" x2="6" y2="28" transform="translate(40,10)" />
    <line x1="7" y1="25" x2="6" y2="28" transform="translate(50,10)" />
    <line x1="7" y1="25" x2="6" y2="28" transform="translate(5,15)" />
    <line x1="7" y1="25" x2="6" y2="28" transform="translate(15,15)" />
    <line x1="7" y1="25" x2="6" y2="28" transform="translate(25,15)" />
    <line x1="7" y1="25" x2="6" y2="28" transform="translate(35,15)" />
    <line x1="7" y1="25" x2="6" y2="28" transform="translate(45,15)" />
    <line x1="7" y1="25" x2="6" y2="28" transform="translate(0,20)" />
    <line x1="7" y1="25" x2="6" y2="28" transform="translate(10,20)" />
    <line x1="7" y1="25" x2="6" y2="28" transform="translate(20,20)" />
    <line x1="7" y1="25" x2="6" y2="28" transform="translate(30,20)" />
    <line x1="7" y1="25" x2="6" y2="28" transform="translate(40,20)" />
    <line x1="7" y1="25" x2="6" y2="28" transform="translate(50,20)" />
    <line x1="7" y1="25" x2="6" y2="28" transform="translate(5,25)" />
    <line x1="7" y1="25" x2="6" y2="28" transform="translate(15,25)" />
    <line x1="7" y1="25" x2="6" y2="28" transform="translate(25,25)" />
    <line x1="7" y1="25" x2="6" y2="28" transform="translate(35,25)" />
    <line x1="7" y1="25" x2="6" y2="28" transform="translate(45,25)" />
    <line x1="7" y1="25" x2="6" y2="28" transform="translate(0,30)" />
    <line x1="7" y1="25" x2="6" y2="28" transform="translate(10,30)" />
    <line x1="7" y1="25" x2="6" y2="28" transform="translate(20,30)" />
    <line x1="7" y1="25" x2="6" y2="28" transform="translate(30,30)" />
    <line x1="7" y1="25" x2="6" y2="28" transform="translate(40,30)" />
    <line x1="7" y1="25" x2="6" y2="28" transform="translate(50,30)" />
    <line x1="7" y1="25" x2="6" y2="28" transform="translate(5,35)" />
    <line x1="7" y1="25" x2="6" y2="28" transform="translate(15,35)" />
    <line x1="7" y1="25" x2="6" y2="28" transform="translate(25,35)" />
    <line x1="7" y1="25" x2="6" y2="28" transform="translate(35,35)" />
    <line x1="7" y1="25" x2="6" y2="28" transform="translate(45,35)" />
  </g>
</svg>
