<?xml version="1.0" encoding="UTF-8" standalone="no"?>
<!DOCTYPE svg PUBLIC "-//W3C//DTD SVG 1.1//EN"
  "http://www.w3.org/Graphics/SVG/1.1/DTD/svg11.dtd">
<svg width="64px" height="64px" version="1.1"
  xmlns="http://www.w3.org/2000/svg">
<!--
 Copyright © 2006-2012 Tobias Quathamer <t.quathamer@gmx.net>

 This file is part of the Drupal Weather module.

 Weather is free software; you can redistribute it and/or modify
 it under the terms of the GNU General Public License as published by
 the Free Software Foundation; either version 2 of the License, or
 (at your option) any later version.

 Weather is distributed in the hope that it will be useful,
 but WITHOUT ANY WARRANTY; without even the implied warranty of
 MERCHANTABILITY or FITNESS FOR A PARTICULAR PURPOSE.  See the
 GNU General Public License for more details.

 You should have received a copy of the GNU General Public License
 along with Weather; if not, write to the Free Software
 Foundation, Inc., 51 Franklin St, Fifth Floor, Boston, MA  02110-1301  USA
-->

  <!-- dark night sky background -->
  <linearGradient id="nightsky" x2="0" y2="100%">
    <stop offset="0" stop-color="#002266" />
    <stop offset="1" stop-color="#224499" />
  </linearGradient>
  <rect x="0" y="0" width="100%" height="100%" fill="url(#nightsky)" />
	
  <!-- clouds colors -->
  <linearGradient id="cloud" x2="0" y2="100%">
    <stop offset="0" stop-color="#9999cc" />
    <stop offset="1" stop-color="#666699" />
  </linearGradient>
  
  <!-- overcast clouds -->
  <path
    d="M 8,53 C 8,59 20,61 20,57 C 20,59 27,59 27,55 C 39,58 34,41 27,45 C 28,38 16,38 14,46 C 10,33 -8,55 8,53"
    fill="url(#cloud)" />
  <path
    d="M 59,36 C 62,29 43,29 43,36 C 43,33 33,33 33,37 C 19,33 25,55 33,50 C 34,54 53,55 49,49 C 59,55 68,41 59,36"
    fill="url(#cloud)" />
  <path
    d="M 36,24 C 39,17 20,17 20,24 C 20,21 10,21 10,25 C -4,21 2,43 10,38 C 11,42 30,43 26,37 C 36,43 45,29 36,24"
    fill="url(#cloud)" />
  <path
    d="M 34,25 C 34,31 45,33 45,28 C 45,30 53,30 53,27 C 65,30 60,13 53,17 C 54,10 42,10 40,18 C 36,5 17,27 34,25"
    fill="url(#cloud)" />
  <path
    d="M 8,17 C 8,23 19,26 19,20 C 19,23 26,23 26,19 C 38,23 33,3 26,8 C 27,0 16,0 14,9 C 10,-6 -8,19 8,17"
    fill="url(#cloud)" />

  <!-- moderate rain -->
  <g
    stroke="#99bbcc"
    stroke-width="1">
    <line x1="7" y1="24" x2="6" y2="27" />
    <line x1="7" y1="24" x2="6" y2="27" transform="translate(10,0)" />
    <line x1="7" y1="24" x2="6" y2="27" transform="translate(20,0)" />
    <line x1="7" y1="24" x2="6" y2="27" transform="translate(5,5)" />
    <line x1="7" y1="24" x2="6" y2="27" transform="translate(15,5)" />
    <line x1="7" y1="24" x2="6" y2="27" transform="translate(25,5)" />
    <line x1="7" y1="24" x2="6" y2="27" transform="translate(35,5)" />
    <line x1="7" y1="24" x2="6" y2="27" transform="translate(45,5)" />
    <line x1="7" y1="24" x2="6" y2="27" transform="translate(0,10)" />
    <line x1="7" y1="24" x2="6" y2="27" transform="translate(10,10)" />
    <line x1="7" y1="24" x2="6" y2="27" transform="translate(20,10)" />
    <line x1="7" y1="24" x2="6" y2="27" transform="translate(30,10)" />
    <line x1="7" y1="24" x2="6" y2="27" transform="translate(40,10)" />
    <line x1="7" y1="24" x2="6" y2="27" transform="translate(50,10)" />
    <line x1="7" y1="24" x2="6" y2="27" transform="translate(5,15)" />
    <line x1="7" y1="24" x2="6" y2="27" transform="translate(15,15)" />
    <line x1="7" y1="24" x2="6" y2="27" transform="translate(25,15)" />
    <line x1="7" y1="24" x2="6" y2="27" transform="translate(35,15)" />
    <line x1="7" y1="24" x2="6" y2="27" transform="translate(45,15)" />
    <line x1="7" y1="24" x2="6" y2="27" transform="translate(0,20)" />
    <line x1="7" y1="24" x2="6" y2="27" transform="translate(10,20)" />
    <line x1="7" y1="24" x2="6" y2="27" transform="translate(20,20)" />
    <line x1="7" y1="24" x2="6" y2="27" transform="translate(30,20)" />
    <line x1="7" y1="24" x2="6" y2="27" transform="translate(40,20)" />
    <line x1="7" y1="24" x2="6" y2="27" transform="translate(50,20)" />
    <line x1="7" y1="24" x2="6" y2="27" transform="translate(5,25)" />
    <line x1="7" y1="24" x2="6" y2="27" transform="translate(15,25)" />
    <line x1="7" y1="24" x2="6" y2="27" transform="translate(25,25)" />
    <line x1="7" y1="24" x2="6" y2="27" transform="translate(35,25)" />
    <line x1="7" y1="24" x2="6" y2="27" transform="translate(45,25)" />
    <line x1="7" y1="24" x2="6" y2="27" transform="translate(0,30)" />
    <line x1="7" y1="24" x2="6" y2="27" transform="translate(10,30)" />
    <line x1="7" y1="24" x2="6" y2="27" transform="translate(20,30)" />
    <line x1="7" y1="24" x2="6" y2="27" transform="translate(30,30)" />
    <line x1="7" y1="24" x2="6" y2="27" transform="translate(40,30)" />
    <line x1="7" y1="24" x2="6" y2="27" transform="translate(50,30)" />
    <line x1="7" y1="24" x2="6" y2="27" transform="translate(5,35)" />
    <line x1="7" y1="24" x2="6" y2="27" transform="translate(15,35)" />
    <line x1="7" y1="24" x2="6" y2="27" transform="translate(25,35)" />
    <line x1="7" y1="24" x2="6" y2="27" transform="translate(35,35)" />
    <line x1="7" y1="24" x2="6" y2="27" transform="translate(45,35)" />
  </g>
</svg>
