<?xml version="1.0" encoding="UTF-8" standalone="no"?>
<!DOCTYPE svg PUBLIC "-//W3C//DTD SVG 1.1//EN"
  "http://www.w3.org/Graphics/SVG/1.1/DTD/svg11.dtd">
<svg width="64px" height="64px" version="1.1"
  xmlns="http://www.w3.org/2000/svg">
<!--
 Copyright © 2008-2012 Tobias Quathamer <t.quathamer@gmx.net>

 This file is part of the Drupal Weather module.

 Weather is free software; you can redistribute it and/or modify
 it under the terms of the GNU General Public License as published by
 the Free Software Foundation; either version 2 of the License, or
 (at your option) any later version.

 Weather is distributed in the hope that it will be useful,
 but WITHOUT ANY WARRANTY; without even the implied warranty of
 MERCHANTABILITY or FITNESS FOR A PARTICULAR PURPOSE.  See the
 GNU General Public License for more details.

 You should have received a copy of the GNU General Public License
 along with Weather; if not, write to the Free Software
 Foundation, Inc., 51 Franklin St, Fifth Floor, Boston, MA  02110-1301  USA
-->

  <!-- blue sky background -->	
  <linearGradient id="sky" x2="0" y2="100%">
    <stop offset="0" stop-color="#6283aa" />
    <stop offset="1" stop-color="#81bcff" />
  </linearGradient>
  <rect x="0" y="0" width="100%" height="100%" fill="url(#sky)" />
  
  <!-- a slightly cold sun -->
  <radialGradient id="sun">
    <stop offset="0" stop-color="#ffff66" />
    <stop offset="1" stop-color="#ffcc66" />
  </radialGradient>
  <circle cx="20" cy="20" r="16" fill="url(#sun)" />

  <!-- clouds colors -->
  <linearGradient id="cloud" x2="0" y2="100%">
    <stop offset="0" stop-color="#ccccff" />
    <stop offset="1" stop-color="#9999cc" />
  </linearGradient>
  
  <!-- few clouds -->
  <path
    d="M 36,33 C 36,39 47,41 47,36 C 47,38 55,38 55,35 C 67,38 62,21 55,25 C 56,18 44,18 42,26 C 38,13 19,35 36,33"
    fill="url(#cloud)" />

  <!-- light rain -->
  <g
    stroke="#cceeff"
    stroke-width="1">
    <line x1="37" y1="40" x2="36" y2="43" />
    <line x1="37" y1="40" x2="36" y2="43" transform="translate(10,0)" />
    <line x1="37" y1="40" x2="36" y2="43" transform="translate(20,0)" />
    <line x1="37" y1="40" x2="36" y2="43" transform="translate(5,8)" />
    <line x1="37" y1="40" x2="36" y2="43" transform="translate(15,8)" />
    <line x1="37" y1="40" x2="36" y2="43" transform="translate(0,16)" />
    <line x1="37" y1="40" x2="36" y2="43" transform="translate(10,16)" />
    <line x1="37" y1="40" x2="36" y2="43" transform="translate(20,16)" />
  </g>

  <!-- cover everything with semi-transparent white fog -->
  <rect x="0" y="0" width="100%" height="100%" fill="#ffffff" fill-opacity="0.5" />
</svg>
