<?xml version="1.0" encoding="UTF-8" standalone="no"?>
<!DOCTYPE svg PUBLIC "-//W3C//DTD SVG 1.1//EN"
  "http://www.w3.org/Graphics/SVG/1.1/DTD/svg11.dtd">
<svg width="64px" height="64px" version="1.1"
  xmlns="http://www.w3.org/2000/svg">
<!--
 Copyright © 2008-2012 Tobias Quathamer <t.quathamer@gmx.net>

 This file is part of the Drupal Weather module.

 Weather is free software; you can redistribute it and/or modify
 it under the terms of the GNU General Public License as published by
 the Free Software Foundation; either version 2 of the License, or
 (at your option) any later version.

 Weather is distributed in the hope that it will be useful,
 but WITHOUT ANY WARRANTY; without even the implied warranty of
 MERCHANTABILITY or FITNESS FOR A PARTICULAR PURPOSE.  See the
 GNU General Public License for more details.

 You should have received a copy of the GNU General Public License
 along with Weather; if not, write to the Free Software
 Foundation, Inc., 51 Franklin St, Fifth Floor, Boston, MA  02110-1301  USA
-->

  <!-- dark night sky background -->
  <linearGradient id="nightsky" x2="0" y2="100%">
    <stop offset="0" stop-color="#002266" />
    <stop offset="1" stop-color="#224499" />
  </linearGradient>
  <rect x="0" y="0" width="100%" height="100%" fill="url(#nightsky)" />
	
  <!-- a moon -->
  <radialGradient id="moon">
    <stop offset="0" stop-color="#ffffee" />
    <stop offset="1" stop-color="#cccccc" />
  </radialGradient>
  <path
    d="M 20 4 C 11 4 4 11 4 20 C 4 29 11 36 20 36 C 24 36 28 34 31 32 C 30 32 29 32 28 32 C 20 32 13 25 13 17 C 13 11 16 7 20 4 C 20 4 20 4 20 4 C 20 4 20 4 20 4 z "
    fill="url(#moon)" />

  <!-- clouds colors -->
  <linearGradient id="cloud" x2="0" y2="100%">
    <stop offset="0" stop-color="#aaaadd" />
    <stop offset="1" stop-color="#7777aa" />
  </linearGradient>
  
  <!-- few clouds -->
  <path
    d="M 36,33 C 36,39 47,41 47,36 C 47,38 55,38 55,35 C 67,38 62,21 55,25 C 56,18 44,18 42,26 C 38,13 19,35 36,33"
    fill="url(#cloud)" />

  <!-- heavy snow -->
  <g
    stroke="#aaccdd"
    stroke-width="1">
    <line x1="35" y1="40" x2="38" y2="43" />
    <line x1="38" y1="40" x2="35" y2="43" />
    <line x1="35" y1="40" x2="38" y2="43" transform="translate(10,0)" />
    <line x1="38" y1="40" x2="35" y2="43" transform="translate(10,0)" />
    <line x1="35" y1="40" x2="38" y2="43" transform="translate(20,0)" />
    <line x1="38" y1="40" x2="35" y2="43" transform="translate(20,0)" />
    <line x1="35" y1="40" x2="38" y2="43" transform="translate(5,3)" />
    <line x1="38" y1="40" x2="35" y2="43" transform="translate(5,3)" />
    <line x1="35" y1="40" x2="38" y2="43" transform="translate(15,3)" />
    <line x1="38" y1="40" x2="35" y2="43" transform="translate(15,3)" />
    <line x1="35" y1="40" x2="38" y2="43" transform="translate(0,6)" />
    <line x1="38" y1="40" x2="35" y2="43" transform="translate(0,6)" />
    <line x1="35" y1="40" x2="38" y2="43" transform="translate(10,6)" />
    <line x1="38" y1="40" x2="35" y2="43" transform="translate(10,6)" />
    <line x1="35" y1="40" x2="38" y2="43" transform="translate(20,6)" />
    <line x1="38" y1="40" x2="35" y2="43" transform="translate(20,6)" />
    <line x1="35" y1="40" x2="38" y2="43" transform="translate(5,9)" />
    <line x1="38" y1="40" x2="35" y2="43" transform="translate(5,9)" />
    <line x1="35" y1="40" x2="38" y2="43" transform="translate(15,9)" />
    <line x1="38" y1="40" x2="35" y2="43" transform="translate(15,9)" />
    <line x1="35" y1="40" x2="38" y2="43" transform="translate(0,12)" />
    <line x1="38" y1="40" x2="35" y2="43" transform="translate(0,12)" />
    <line x1="35" y1="40" x2="38" y2="43" transform="translate(10,12)" />
    <line x1="38" y1="40" x2="35" y2="43" transform="translate(10,12)" />
    <line x1="35" y1="40" x2="38" y2="43" transform="translate(20,12)" />
    <line x1="38" y1="40" x2="35" y2="43" transform="translate(20,12)" />
    <line x1="35" y1="40" x2="38" y2="43" transform="translate(5,15)" />
    <line x1="38" y1="40" x2="35" y2="43" transform="translate(5,15)" />
    <line x1="35" y1="40" x2="38" y2="43" transform="translate(15,15)" />
    <line x1="38" y1="40" x2="35" y2="43" transform="translate(15,15)" />
    <line x1="35" y1="40" x2="38" y2="43" transform="translate(0,18)" />
    <line x1="38" y1="40" x2="35" y2="43" transform="translate(0,18)" />
    <line x1="35" y1="40" x2="38" y2="43" transform="translate(10,18)" />
    <line x1="38" y1="40" x2="35" y2="43" transform="translate(10,18)" />
    <line x1="35" y1="40" x2="38" y2="43" transform="translate(20,18)" />
    <line x1="38" y1="40" x2="35" y2="43" transform="translate(20,18)" />
  </g>
</svg>
